<?xml version="1.0" encoding="UTF-8"?><svg id="Layer_2" xmlns="http://www.w3.org/2000/svg" viewBox="0 0 288.08 265.41"><defs><style>.cls-1{fill:#1c2347;}</style></defs><g id="Layer_1-2"><g><path class="cls-1" d="M0,39.75c1.95-5.9,4.37-12.31,7.39-19.05C10.88,12.92,14.59,6.01,18.19,0c12.84,27.49,25.67,54.99,38.51,82.48C37.8,68.24,18.9,54,0,39.75Z"/><path class="cls-1" d="M0,46.45c47.03,35.44,94.07,70.88,141.1,106.32-3.01,7.85-6.01,15.7-9.02,23.55-37.7-28.46-75.4-56.92-113.1-85.37-2.75-4.78-5.5-10.01-8.14-15.69C6.05,64.96,2.56,55.22,0,46.45Z"/><path class="cls-1" d="M23.12,101.04c35.59,27.12,71.17,54.23,106.76,81.35h-44.79c-8.82-7.98-18.29-17.57-27.72-28.96-15.49-18.71-26.47-36.97-34.25-52.39Z"/><path class="cls-1" d="M288.08,39.75c-1.95-5.9-4.37-12.31-7.39-19.05-3.49-7.79-7.2-14.69-10.8-20.7-12.84,27.49-25.67,54.99-38.51,82.48,18.9-14.24,37.8-28.48,56.69-42.72Z"/><path class="cls-1" d="M288.08,46.45c-47.03,35.44-94.07,70.88-141.1,106.32,3.01,7.85,6.01,15.7,9.02,23.55,37.7-28.46,75.4-56.92,113.1-85.37,2.75-4.78,5.5-10.01,8.14-15.69,4.79-10.31,8.28-20.06,10.84-28.82Z"/><path class="cls-1" d="M264.97,101.04c-35.59,27.12-71.17,54.23-106.76,81.35h44.79c8.82-7.98,18.29-17.57,27.72-28.96,15.49-18.71,26.47-36.97,34.25-52.39Z"/><circle class="cls-1" cx="144.24" cy="200.71" r="16.21"/><path class="cls-1" d="M101.51,195.91c6.14,4.63,12.29,9.26,18.43,13.89l-10.27,31.55c-10.83-8.24-21.66-16.47-32.49-24.71,8.11-6.91,16.22-13.82,24.33-20.73Z"/><path class="cls-1" d="M144.32,224c-8.7,6.7-17.4,13.4-26.11,20.09,8.76,7.11,17.53,14.21,26.29,21.32,9.06-6.93,18.12-13.86,27.19-20.78l-27.37-20.63Z"/><path class="cls-1" d="M184.05,195.91c-6.14,4.63-12.29,9.26-18.43,13.89l10.27,31.55c10.83-8.24,21.66-16.47,32.49-24.71-8.11-6.91-16.22-13.82-24.33-20.73Z"/></g></g></svg>